<svg xmlns="http://www.w3.org/2000/svg" xmlns:xlink="http://www.w3.org/1999/xlink" width="54" zoomAndPan="magnify" viewBox="0 0 40.5 41.25" height="55" preserveAspectRatio="xMidYMid meet" version="1.0"><defs><g/><clipPath id="b632d06bf2"><path d="M 7.492188 10.886719 L 32.539062 10.886719 L 32.539062 38.140625 L 7.492188 38.140625 Z M 7.492188 10.886719 " clip-rule="nonzero"/></clipPath></defs><g clip-path="url(#b632d06bf2)"><path fill="#2196f3" d="M 32.375 11.074219 C 32.261719 10.949219 32.121094 10.886719 31.953125 10.886719 L 8.074219 10.886719 C 7.90625 10.886719 7.765625 10.949219 7.652344 11.074219 C 7.539062 11.199219 7.488281 11.34375 7.507812 11.511719 L 9.78125 34.222656 C 9.804688 34.46875 9.933594 34.628906 10.167969 34.707031 L 20.398438 38.113281 C 20.460938 38.132812 20.519531 38.140625 20.582031 38.140625 C 20.652344 38.140625 20.71875 38.128906 20.785156 38.105469 L 29.878906 34.699219 C 30.101562 34.617188 30.226562 34.457031 30.25 34.222656 L 32.523438 11.511719 C 32.539062 11.34375 32.492188 11.199219 32.375 11.074219 Z M 32.375 11.074219 " fill-opacity="1" fill-rule="nonzero"/></g><path fill="#fafafa" d="M 20.582031 32.464844 C 20.523438 32.464844 20.460938 32.453125 20.402344 32.433594 L 15.285156 30.730469 C 15.078125 30.664062 14.953125 30.519531 14.910156 30.304688 L 14.339844 27.46875 C 14.308594 27.3125 14.335938 27.171875 14.421875 27.039062 C 14.511719 26.910156 14.628906 26.828125 14.785156 26.796875 C 14.9375 26.765625 15.082031 26.792969 15.210938 26.878906 C 15.34375 26.964844 15.421875 27.085938 15.453125 27.238281 L 15.957031 29.753906 L 20.570312 31.292969 L 24.628906 29.777344 L 26.730469 17.699219 L 13.761719 17.699219 C 13.605469 17.699219 13.46875 17.644531 13.359375 17.535156 C 13.246094 17.421875 13.191406 17.289062 13.191406 17.132812 C 13.191406 16.976562 13.246094 16.84375 13.359375 16.730469 C 13.46875 16.621094 13.605469 16.566406 13.761719 16.566406 L 27.40625 16.566406 C 27.582031 16.566406 27.726562 16.632812 27.839844 16.765625 C 27.957031 16.902344 27.996094 17.058594 27.964844 17.230469 L 25.691406 30.289062 C 25.65625 30.503906 25.535156 30.648438 25.332031 30.722656 L 20.785156 32.425781 C 20.71875 32.453125 20.652344 32.464844 20.582031 32.464844 Z M 20.582031 32.464844 " fill-opacity="1" fill-rule="nonzero"/><path fill="#fafafa" d="M 26.269531 23.378906 L 14.328125 23.378906 C 14.171875 23.378906 14.039062 23.324219 13.925781 23.210938 C 13.816406 23.101562 13.761719 22.96875 13.761719 22.8125 C 13.761719 22.652344 13.816406 22.519531 13.925781 22.410156 C 14.039062 22.296875 14.171875 22.242188 14.328125 22.242188 L 26.269531 22.242188 C 26.425781 22.242188 26.558594 22.296875 26.671875 22.410156 C 26.78125 22.519531 26.835938 22.652344 26.835938 22.8125 C 26.835938 22.96875 26.78125 23.101562 26.671875 23.210938 C 26.558594 23.324219 26.425781 23.378906 26.269531 23.378906 Z M 26.269531 23.378906 " fill-opacity="1" fill-rule="nonzero"/><g fill="#000000" fill-opacity="1"><g transform="translate(11.774838, 8.339082)"><g><path d="M 2.90625 0.09375 C 2.425781 0.09375 2 -0.00390625 1.625 -0.203125 C 1.257812 -0.398438 0.972656 -0.691406 0.765625 -1.078125 C 0.554688 -1.472656 0.453125 -1.945312 0.453125 -2.5 C 0.453125 -3.039062 0.554688 -3.503906 0.765625 -3.890625 C 0.972656 -4.285156 1.257812 -4.582031 1.625 -4.78125 C 1.988281 -4.976562 2.410156 -5.078125 2.890625 -5.078125 C 3.941406 -5.078125 4.613281 -4.695312 4.90625 -3.9375 L 4.046875 -3.328125 L 3.953125 -3.328125 C 3.847656 -3.554688 3.710938 -3.726562 3.546875 -3.84375 C 3.390625 -3.957031 3.171875 -4.015625 2.890625 -4.015625 C 2.523438 -4.015625 2.238281 -3.890625 2.03125 -3.640625 C 1.832031 -3.390625 1.734375 -3.007812 1.734375 -2.5 C 1.734375 -1.976562 1.835938 -1.59375 2.046875 -1.34375 C 2.253906 -1.09375 2.539062 -0.96875 2.90625 -0.96875 C 3.175781 -0.96875 3.40625 -1.039062 3.59375 -1.1875 C 3.78125 -1.332031 3.914062 -1.539062 4 -1.8125 L 4.09375 -1.828125 L 4.984375 -1.34375 C 4.859375 -0.914062 4.625 -0.566406 4.28125 -0.296875 C 3.9375 -0.0351562 3.476562 0.09375 2.90625 0.09375 Z M 2.90625 0.09375 "/></g></g><g transform="translate(16.918901, 8.339082)"><g><path d="M 2.328125 0.09375 C 1.992188 0.09375 1.679688 0.0546875 1.390625 -0.015625 C 1.109375 -0.0976562 0.867188 -0.207031 0.671875 -0.34375 C 0.472656 -0.488281 0.320312 -0.65625 0.21875 -0.84375 L 0.921875 -1.59375 L 1.015625 -1.59375 C 1.179688 -1.363281 1.378906 -1.191406 1.609375 -1.078125 C 1.835938 -0.972656 2.082031 -0.921875 2.34375 -0.921875 C 2.582031 -0.921875 2.765625 -0.960938 2.890625 -1.046875 C 3.015625 -1.140625 3.078125 -1.265625 3.078125 -1.421875 C 3.078125 -1.546875 3.03125 -1.648438 2.9375 -1.734375 C 2.851562 -1.828125 2.710938 -1.898438 2.515625 -1.953125 L 1.859375 -2.109375 C 1.359375 -2.222656 0.992188 -2.398438 0.765625 -2.640625 C 0.546875 -2.890625 0.4375 -3.195312 0.4375 -3.5625 C 0.4375 -3.875 0.515625 -4.144531 0.671875 -4.375 C 0.828125 -4.601562 1.046875 -4.773438 1.328125 -4.890625 C 1.617188 -5.015625 1.957031 -5.078125 2.34375 -5.078125 C 2.789062 -5.078125 3.160156 -5.015625 3.453125 -4.890625 C 3.753906 -4.765625 3.988281 -4.59375 4.15625 -4.375 L 3.484375 -3.640625 L 3.390625 -3.640625 C 3.253906 -3.796875 3.097656 -3.910156 2.921875 -3.984375 C 2.753906 -4.054688 2.5625 -4.09375 2.34375 -4.09375 C 1.851562 -4.09375 1.609375 -3.941406 1.609375 -3.640625 C 1.609375 -3.503906 1.648438 -3.394531 1.734375 -3.3125 C 1.828125 -3.238281 1.988281 -3.175781 2.21875 -3.125 L 2.84375 -2.984375 C 3.34375 -2.878906 3.707031 -2.707031 3.9375 -2.46875 C 4.175781 -2.226562 4.296875 -1.90625 4.296875 -1.5 C 4.296875 -1.175781 4.21875 -0.894531 4.0625 -0.65625 C 3.90625 -0.414062 3.675781 -0.226562 3.375 -0.09375 C 3.082031 0.03125 2.734375 0.09375 2.328125 0.09375 Z M 2.328125 0.09375 "/></g></g><g transform="translate(21.520054, 8.339082)"><g><path d="M 2.328125 0.09375 C 1.992188 0.09375 1.679688 0.0546875 1.390625 -0.015625 C 1.109375 -0.0976562 0.867188 -0.207031 0.671875 -0.34375 C 0.472656 -0.488281 0.320312 -0.65625 0.21875 -0.84375 L 0.921875 -1.59375 L 1.015625 -1.59375 C 1.179688 -1.363281 1.378906 -1.191406 1.609375 -1.078125 C 1.835938 -0.972656 2.082031 -0.921875 2.34375 -0.921875 C 2.582031 -0.921875 2.765625 -0.960938 2.890625 -1.046875 C 3.015625 -1.140625 3.078125 -1.265625 3.078125 -1.421875 C 3.078125 -1.546875 3.03125 -1.648438 2.9375 -1.734375 C 2.851562 -1.828125 2.710938 -1.898438 2.515625 -1.953125 L 1.859375 -2.109375 C 1.359375 -2.222656 0.992188 -2.398438 0.765625 -2.640625 C 0.546875 -2.890625 0.4375 -3.195312 0.4375 -3.5625 C 0.4375 -3.875 0.515625 -4.144531 0.671875 -4.375 C 0.828125 -4.601562 1.046875 -4.773438 1.328125 -4.890625 C 1.617188 -5.015625 1.957031 -5.078125 2.34375 -5.078125 C 2.789062 -5.078125 3.160156 -5.015625 3.453125 -4.890625 C 3.753906 -4.765625 3.988281 -4.59375 4.15625 -4.375 L 3.484375 -3.640625 L 3.390625 -3.640625 C 3.253906 -3.796875 3.097656 -3.910156 2.921875 -3.984375 C 2.753906 -4.054688 2.5625 -4.09375 2.34375 -4.09375 C 1.851562 -4.09375 1.609375 -3.941406 1.609375 -3.640625 C 1.609375 -3.503906 1.648438 -3.394531 1.734375 -3.3125 C 1.828125 -3.238281 1.988281 -3.175781 2.21875 -3.125 L 2.84375 -2.984375 C 3.34375 -2.878906 3.707031 -2.707031 3.9375 -2.46875 C 4.175781 -2.226562 4.296875 -1.90625 4.296875 -1.5 C 4.296875 -1.175781 4.21875 -0.894531 4.0625 -0.65625 C 3.90625 -0.414062 3.675781 -0.226562 3.375 -0.09375 C 3.082031 0.03125 2.734375 0.09375 2.328125 0.09375 Z M 2.328125 0.09375 "/></g></g></g></svg>