<svg xmlns="http://www.w3.org/2000/svg" xmlns:xlink="http://www.w3.org/1999/xlink" width="54" zoomAndPan="magnify" viewBox="0 0 40.5 41.25" height="55" preserveAspectRatio="xMidYMid meet" version="1.0"><defs><clipPath id="6e91177723"><path d="M 10 2.363281 L 29 2.363281 L 29 38.457031 L 10 38.457031 Z M 10 2.363281 " clip-rule="nonzero"/></clipPath></defs><path fill="#4e7896" d="M 16.875 21.503906 C 16.875 21.503906 15.929688 22.082031 17.535156 22.25 C 19.46875 22.496094 20.496094 22.457031 22.632812 22.042969 C 22.632812 22.042969 23.210938 22.414062 23.992188 22.703125 C 19.179688 24.769531 13.09375 22.578125 16.875 21.503906 Z M 16.257812 18.816406 C 16.257812 18.816406 15.230469 19.601562 16.835938 19.769531 C 18.933594 19.976562 20.578125 20.015625 23.417969 19.4375 C 23.417969 19.4375 23.785156 19.851562 24.402344 20.058594 C 18.605469 21.792969 12.105469 20.222656 16.257812 18.816406 Z M 27.613281 23.53125 C 27.613281 23.53125 28.3125 24.109375 26.832031 24.5625 C 24.074219 25.390625 15.273438 25.636719 12.804688 24.5625 C 11.941406 24.191406 13.585938 23.652344 14.121094 23.570312 C 14.65625 23.449219 14.941406 23.449219 14.941406 23.449219 C 13.996094 22.785156 8.652344 24.8125 12.230469 25.390625 C 22.058594 27.003906 30.160156 24.6875 27.613281 23.53125 Z M 17.328125 16.007812 C 17.328125 16.007812 12.847656 17.082031 15.726562 17.453125 C 16.960938 17.617188 19.386719 17.578125 21.648438 17.410156 C 23.5 17.246094 25.347656 16.914062 25.347656 16.914062 C 25.347656 16.914062 24.691406 17.203125 24.238281 17.496094 C 19.671875 18.691406 10.914062 18.15625 13.421875 16.914062 C 15.558594 15.882812 17.328125 16.007812 17.328125 16.007812 Z M 25.347656 20.511719 C 29.957031 18.113281 27.816406 15.800781 26.335938 16.089844 C 25.964844 16.171875 25.800781 16.253906 25.800781 16.253906 C 25.800781 16.253906 25.925781 16.007812 26.214844 15.921875 C 29.132812 14.890625 31.4375 19.023438 25.265625 20.636719 C 25.265625 20.636719 25.308594 20.59375 25.347656 20.511719 Z M 17.78125 27.042969 C 22.222656 27.332031 29.007812 26.878906 29.175781 24.769531 C 29.175781 24.769531 28.847656 25.597656 25.515625 26.21875 C 21.730469 26.921875 17.042969 26.835938 14.285156 26.382812 C 14.285156 26.382812 14.863281 26.878906 17.78125 27.042969 Z M 17.78125 27.042969 " fill-opacity="1" fill-rule="nonzero"/><g clip-path="url(#6e91177723)"><path fill="#f58219" d="M 22.550781 2.363281 C 22.550781 2.363281 25.101562 4.96875 20.125 8.894531 C 16.136719 12.078125 19.21875 13.898438 20.125 15.964844 C 17.78125 13.855469 16.09375 11.996094 17.246094 10.261719 C 18.933594 7.695312 23.582031 6.457031 22.550781 2.363281 Z M 21.238281 14.230469 C 22.429688 15.59375 20.90625 16.832031 20.90625 16.832031 C 20.90625 16.832031 23.953125 15.261719 22.554688 13.320312 C 21.277344 11.460938 20.289062 10.550781 25.636719 7.449219 C 25.636719 7.449219 17.207031 9.558594 21.238281 14.230469 Z M 18.191406 36.429688 L 18.191406 32.375 C 18.191406 31.34375 17.617188 30.640625 16.175781 30.640625 C 15.355469 30.640625 14.65625 30.847656 14.039062 31.09375 L 14.246094 31.839844 C 14.695312 31.671875 15.273438 31.507812 15.890625 31.507812 C 16.671875 31.507812 17.042969 31.839844 17.042969 32.5 L 17.042969 33.039062 L 16.628906 33.039062 C 14.65625 33.039062 13.75 33.78125 13.75 34.980469 C 13.75 35.972656 14.367188 36.550781 15.476562 36.550781 C 16.175781 36.550781 16.710938 36.222656 17.207031 35.808594 L 17.289062 36.425781 L 18.191406 36.425781 Z M 17.039062 35.105469 C 16.628906 35.476562 16.175781 35.683594 15.765625 35.683594 C 15.230469 35.683594 14.902344 35.351562 14.902344 34.773438 C 14.902344 34.195312 15.230469 33.78125 16.546875 33.78125 L 17.042969 33.78125 L 17.042969 35.105469 Z M 22.058594 36.429688 L 20.621094 36.429688 L 18.890625 30.765625 L 20.125 30.765625 L 21.195312 34.238281 L 21.441406 35.269531 C 21.976562 33.78125 22.386719 32.253906 22.550781 30.765625 L 23.785156 30.765625 C 23.457031 32.625 22.882812 34.652344 22.058594 36.429688 Z M 28.722656 36.429688 L 28.722656 32.375 C 28.722656 31.34375 28.144531 30.640625 26.707031 30.640625 C 25.882812 30.640625 25.183594 30.847656 24.566406 31.09375 L 24.730469 31.839844 C 25.226562 31.671875 25.800781 31.507812 26.417969 31.507812 C 27.199219 31.507812 27.570312 31.839844 27.570312 32.5 L 27.570312 33.039062 L 27.160156 33.039062 C 25.183594 33.039062 24.28125 33.78125 24.28125 34.980469 C 24.28125 35.972656 24.855469 36.550781 25.964844 36.550781 C 26.707031 36.550781 27.242188 36.222656 27.734375 35.808594 L 27.816406 36.425781 L 28.722656 36.425781 Z M 27.570312 35.105469 C 27.160156 35.476562 26.707031 35.683594 26.296875 35.683594 C 25.761719 35.683594 25.429688 35.351562 25.429688 34.773438 C 25.429688 34.195312 25.761719 33.78125 27.078125 33.78125 L 27.570312 33.78125 Z M 12.476562 37.378906 C 12.148438 37.875 11.652344 38.246094 11.035156 38.453125 L 10.5 37.792969 C 10.914062 37.546875 11.324219 37.171875 11.488281 36.84375 C 11.652344 36.550781 11.695312 36.140625 11.695312 35.1875 L 11.695312 28.738281 L 12.929688 28.738281 L 12.929688 35.105469 C 12.929688 36.386719 12.804688 36.882812 12.476562 37.378906 Z M 12.476562 37.378906 " fill-opacity="1" fill-rule="nonzero"/></g></svg>