<svg xmlns="http://www.w3.org/2000/svg" xmlns:xlink="http://www.w3.org/1999/xlink" width="54" zoomAndPan="magnify" viewBox="0 0 40.5 41.25" height="55" preserveAspectRatio="xMidYMid meet" version="1.0"><defs><clipPath id="233fbde79a"><path d="M 1.160156 6 L 39.894531 6 L 39.894531 28 L 1.160156 28 Z M 1.160156 6 " clip-rule="nonzero"/></clipPath></defs><g clip-path="url(#233fbde79a)"><path fill="#00678c" d="M 1.089844 25.433594 L 2.394531 25.433594 L 2.394531 20.230469 L 4.4375 24.769531 C 4.667969 25.3125 5 25.515625 5.640625 25.515625 C 6.285156 25.515625 6.597656 25.3125 6.835938 24.769531 L 8.867188 20.230469 L 8.867188 25.433594 L 10.183594 25.433594 L 10.183594 20.230469 C 10.183594 19.722656 9.980469 19.480469 9.558594 19.351562 C 8.5625 19.046875 7.902344 19.308594 7.597656 19.984375 L 5.597656 24.472656 L 3.667969 19.984375 C 3.378906 19.308594 2.703125 19.046875 1.699219 19.351562 C 1.289062 19.480469 1.085938 19.722656 1.085938 20.230469 L 1.085938 25.433594 Z M 11.269531 21.199219 L 12.585938 21.199219 L 12.585938 24.058594 C 12.578125 24.222656 12.636719 24.585938 13.351562 24.597656 C 13.722656 24.605469 16.1875 24.597656 16.207031 24.597656 L 16.207031 21.179688 L 17.523438 21.179688 L 17.523438 25.859375 C 17.523438 27.011719 16.105469 27.265625 15.441406 27.273438 L 11.300781 27.273438 L 11.300781 26.394531 L 15.453125 26.394531 C 16.296875 26.304688 16.195312 25.878906 16.195312 25.738281 L 16.195312 25.394531 L 13.414062 25.394531 C 12.117188 25.382812 11.28125 24.808594 11.273438 24.152344 L 11.273438 21.199219 Z M 39.511719 17.882812 C 38.707031 17.863281 38.082031 17.945312 37.5625 18.167969 C 37.410156 18.226562 37.167969 18.226562 37.148438 18.421875 C 37.230469 18.5 37.238281 18.632812 37.308594 18.742188 C 37.429688 18.945312 37.640625 19.21875 37.832031 19.359375 C 38.042969 19.523438 38.253906 19.683594 38.476562 19.824219 C 38.867188 20.066406 39.308594 20.207031 39.691406 20.453125 C 39.914062 20.59375 40.132812 20.773438 40.355469 20.925781 C 40.46875 21.007812 40.535156 21.140625 40.675781 21.191406 L 40.675781 21.160156 C 40.605469 21.070312 40.585938 20.9375 40.515625 20.835938 C 40.414062 20.734375 40.3125 20.644531 40.214844 20.542969 C 39.921875 20.148438 39.558594 19.804688 39.167969 19.523438 C 38.847656 19.300781 38.144531 18.996094 38.011719 18.621094 L 37.992188 18.601562 C 38.214844 18.582031 38.476562 18.5 38.6875 18.441406 C 39.027344 18.347656 39.339844 18.371094 39.691406 18.277344 C 39.851562 18.238281 40.011719 18.1875 40.175781 18.136719 L 40.175781 18.046875 C 39.992188 17.863281 39.863281 17.621094 39.671875 17.449219 C 39.160156 17.003906 38.597656 16.570312 38.011719 16.207031 C 37.703125 16.003906 37.300781 15.871094 36.96875 15.703125 C 36.847656 15.640625 36.644531 15.609375 36.574219 15.507812 C 36.394531 15.289062 36.292969 14.992188 36.164062 14.730469 C 35.871094 14.175781 35.589844 13.558594 35.339844 12.972656 C 35.160156 12.578125 35.046875 12.183594 34.828125 11.820312 C 33.792969 10.101562 32.667969 9.058594 30.9375 8.039062 C 30.566406 7.828125 30.125 7.734375 29.652344 7.625 L 28.898438 7.582031 C 28.738281 7.511719 28.578125 7.320312 28.4375 7.230469 C 27.863281 6.867188 26.386719 6.078125 25.964844 7.117188 C 25.691406 7.777344 26.367188 8.421875 26.59375 8.757812 C 26.765625 8.988281 26.988281 9.25 27.109375 9.515625 C 27.175781 9.6875 27.199219 9.867188 27.269531 10.050781 C 27.429688 10.496094 27.582031 10.992188 27.792969 11.40625 C 27.902344 11.617188 28.023438 11.839844 28.164062 12.03125 C 28.242188 12.144531 28.382812 12.195312 28.414062 12.375 C 28.273438 12.578125 28.265625 12.882812 28.183594 13.132812 C 27.820312 14.277344 27.960938 15.691406 28.476562 16.53125 C 28.636719 16.78125 29.015625 17.339844 29.53125 17.125 C 29.984375 16.945312 29.882812 16.367188 30.011719 15.863281 C 30.042969 15.742188 30.023438 15.660156 30.082031 15.578125 L 30.082031 15.601562 L 30.496094 16.4375 C 30.804688 16.933594 31.347656 17.449219 31.800781 17.792969 C 32.042969 17.976562 32.234375 18.289062 32.535156 18.398438 L 32.535156 18.371094 L 32.515625 18.371094 C 32.453125 18.277344 32.363281 18.238281 32.285156 18.167969 C 32.101562 17.984375 31.902344 17.761719 31.761719 17.5625 C 31.339844 16.996094 30.96875 16.367188 30.636719 15.722656 C 30.472656 15.40625 30.332031 15.066406 30.203125 14.75 C 30.144531 14.628906 30.144531 14.449219 30.042969 14.386719 C 29.890625 14.609375 29.671875 14.800781 29.558594 15.074219 C 29.367188 15.507812 29.347656 16.046875 29.277344 16.601562 C 29.238281 16.609375 29.257812 16.601562 29.238281 16.621094 C 28.917969 16.539062 28.804688 16.207031 28.683594 15.925781 C 28.382812 15.207031 28.332031 14.054688 28.59375 13.226562 C 28.664062 13.011719 28.96875 12.34375 28.847656 12.144531 C 28.785156 11.953125 28.585938 11.839844 28.472656 11.6875 C 28.34375 11.496094 28.203125 11.253906 28.113281 11.042969 C 27.871094 10.476562 27.75 9.847656 27.488281 9.28125 C 27.367188 9.019531 27.15625 8.746094 26.988281 8.503906 C 26.796875 8.230469 26.585938 8.039062 26.433594 7.714844 C 26.382812 7.605469 26.3125 7.421875 26.394531 7.300781 C 26.414062 7.21875 26.453125 7.191406 26.535156 7.171875 C 26.664062 7.058594 27.039062 7.199219 27.167969 7.261719 C 27.539062 7.414062 27.851562 7.554688 28.164062 7.765625 C 28.304688 7.867188 28.453125 8.058594 28.636719 8.109375 L 28.847656 8.109375 C 29.167969 8.179688 29.53125 8.128906 29.832031 8.222656 C 30.363281 8.394531 30.847656 8.644531 31.277344 8.917969 C 32.59375 9.757812 33.679688 10.949219 34.414062 12.375 C 34.535156 12.609375 34.585938 12.820312 34.695312 13.0625 C 34.90625 13.558594 35.167969 14.0625 35.378906 14.550781 C 35.589844 15.023438 35.792969 15.511719 36.09375 15.90625 C 36.242188 16.117188 36.847656 16.226562 37.117188 16.339844 C 37.320312 16.429688 37.628906 16.511719 37.8125 16.621094 C 38.152344 16.835938 38.496094 17.078125 38.816406 17.308594 C 38.976562 17.429688 39.480469 17.683594 39.507812 17.886719 Z M 29.261719 9.101562 C 29.121094 9.097656 28.984375 9.117188 28.847656 9.148438 L 28.847656 9.171875 L 28.871094 9.171875 C 28.949219 9.332031 29.089844 9.445312 29.191406 9.585938 L 29.421875 10.070312 L 29.441406 10.050781 C 29.582031 9.949219 29.652344 9.789062 29.652344 9.546875 C 29.59375 9.472656 29.582031 9.402344 29.53125 9.332031 C 29.472656 9.230469 29.34375 9.179688 29.261719 9.101562 Z M 29.261719 9.101562 " fill-opacity="1" fill-rule="evenodd"/></g><path fill="#ce8b2c" d="M 18.527344 25.433594 L 22.304688 25.433594 C 22.746094 25.433594 23.167969 25.34375 23.511719 25.183594 C 24.085938 24.917969 24.355469 24.566406 24.355469 24.101562 L 24.355469 23.128906 C 24.355469 22.757812 24.042969 22.402344 23.421875 22.160156 C 23.097656 22.039062 22.699219 21.96875 22.304688 21.96875 L 20.71875 21.96875 C 20.183594 21.96875 19.933594 21.804688 19.863281 21.453125 C 19.851562 21.414062 19.851562 21.371094 19.851562 21.332031 L 19.851562 20.734375 C 19.851562 20.703125 19.851562 20.664062 19.863281 20.625 C 19.933594 20.351562 20.074219 20.28125 20.539062 20.230469 L 24.40625 20.230469 L 24.40625 19.351562 L 20.730469 19.351562 C 20.195312 19.351562 19.914062 19.378906 19.664062 19.460938 C 18.890625 19.703125 18.546875 20.089844 18.546875 20.765625 L 18.546875 21.535156 C 18.546875 22.128906 19.210938 22.636719 20.335938 22.757812 C 20.457031 22.765625 20.589844 22.765625 20.71875 22.765625 L 22.078125 22.765625 C 22.125 22.765625 22.175781 22.765625 22.214844 22.777344 C 22.628906 22.816406 22.808594 22.886719 22.929688 23.039062 C 23.011719 23.121094 23.03125 23.191406 23.03125 23.28125 L 23.03125 24.050781 C 23.03125 24.140625 22.96875 24.261719 22.851562 24.363281 C 22.730469 24.464844 22.539062 24.535156 22.285156 24.546875 C 22.238281 24.546875 22.207031 24.554688 22.15625 24.554688 L 18.527344 24.554688 Z M 32.535156 23.910156 C 32.535156 24.808594 33.210938 25.3125 34.558594 25.414062 C 34.6875 25.425781 34.808594 25.433594 34.9375 25.433594 L 38.355469 25.433594 L 38.355469 24.554688 L 34.910156 24.554688 C 34.144531 24.554688 33.851562 24.363281 33.851562 23.898438 L 33.851562 19.351562 L 32.53125 19.351562 L 32.53125 23.910156 Z M 25.191406 23.949219 L 25.191406 20.816406 C 25.191406 20.015625 25.753906 19.53125 26.847656 19.378906 C 26.96875 19.371094 27.089844 19.359375 27.199219 19.359375 L 29.691406 19.359375 C 29.824219 19.359375 29.933594 19.371094 30.0625 19.378906 C 31.160156 19.53125 31.710938 20.015625 31.710938 20.816406 L 31.710938 23.949219 C 31.710938 24.597656 31.480469 24.941406 30.9375 25.171875 L 32.222656 26.34375 L 30.707031 26.34375 L 29.660156 25.394531 L 28.605469 25.457031 L 27.199219 25.457031 C 26.941406 25.453125 26.6875 25.421875 26.433594 25.355469 C 25.601562 25.121094 25.191406 24.675781 25.191406 23.949219 Z M 26.605469 23.878906 C 26.605469 23.917969 26.628906 23.960938 26.636719 24.011719 C 26.707031 24.375 27.046875 24.574219 27.570312 24.574219 L 28.757812 24.574219 L 27.671875 23.585938 L 29.1875 23.585938 L 30.144531 24.453125 C 30.324219 24.355469 30.4375 24.210938 30.476562 24.03125 C 30.484375 23.988281 30.484375 23.941406 30.484375 23.898438 L 30.484375 20.894531 C 30.484375 20.855469 30.484375 20.816406 30.476562 20.773438 C 30.40625 20.433594 30.0625 20.238281 29.550781 20.238281 L 27.570312 20.238281 C 26.988281 20.238281 26.605469 20.492188 26.605469 20.894531 Z M 26.605469 23.878906 " fill-opacity="1" fill-rule="evenodd"/></svg>